<?xml version="1.0" encoding="UTF-8"?>
<!DOCTYPE svg PUBLIC "-//W3C//DTD SVG 1.1//EN" "http://www.w3.org/Graphics/SVG/1.1/DTD/svg11.dtd">
<!-- Creator: CorelDRAW 2017 -->
<svg xmlns="http://www.w3.org/2000/svg" xml:space="preserve" width="16.3496mm" height="11.2492mm" version="1.1" style="shape-rendering:geometricPrecision; text-rendering:geometricPrecision; image-rendering:optimizeQuality; fill-rule:evenodd; clip-rule:evenodd"
viewBox="0 0 55.19 37.98"
 xmlns:xlink="http://www.w3.org/1999/xlink">
 <defs>
  <style type="text/css">
   <![CDATA[
    .fil1 {fill:#0066FF;fill-rule:nonzero}
    .fil0 {fill:#212121;fill-rule:nonzero}
    .fil2 {fill:#2F2F2F;fill-rule:nonzero}
    .fil3 {fill:white;fill-rule:nonzero}
   ]]>
  </style>
 </defs>
 <g id="Layer_x0020_1">
  <metadata id="CorelCorpID_0Corel-Layer"/>
  <g id="_970870745360">
   <path class="fil0" d="M-0 19.5c0,-6 4.52,-10.05 10.37,-10.05 4.25,0 6.73,2.3 8.1,4.75l-3.55 1.75c-0.82,-1.57 -2.56,-2.83 -4.54,-2.83 -3.55,0 -6.12,2.71 -6.12,6.38 0,3.67 2.56,6.38 6.12,6.38 1.98,0 3.73,-1.25 4.54,-2.83l3.55 1.72c-1.37,2.42 -3.85,4.78 -8.1,4.78 -5.86,0 -10.37,-4.08 -10.37,-10.05z"/>
   <path class="fil0" d="M32.34 16.03c0,-1.63 -1.25,-2.62 -2.88,-2.62l-4.37 0 0 5.22 4.37 0c1.63,0 2.88,-0.99 2.88,-2.59zm-11.39 13.17l0 -19.43 9.09 0c4.22,0 6.53,2.86 6.53,6.26 0,3.38 -2.33,6.23 -6.53,6.23l-4.95 0 0 6.93 -4.14 0z"/>
   <path class="fil1" d="M45.04 13.9l-3.03 8.36 6.06 0 -3.03 -8.36zm5.39 15.3l-1.22 -3.29 -8.33 0 -1.22 3.29 -4.69 0 7.49 -19.43 5.19 0 7.49 19.43 -4.69 0z"/>
   <path class="fil1" d="M52.5 6.28l1.84 -1.04c-1.35,-2.39 -3.56,-4.12 -6.22,-4.86 -2.66,-0.74 -5.44,-0.4 -7.83,0.95l1.04 1.84c3.93,-2.22 8.94,-0.83 11.17,3.1z"/>
   <path class="fil1" d="M51.12 7.06c-0.87,-1.54 -2.28,-2.64 -3.98,-3.11 -1.7,-0.47 -3.49,-0.26 -5.02,0.61l1.04 1.84c1.04,-0.59 2.26,-0.74 3.41,-0.41 1.16,0.32 2.12,1.07 2.71,2.12l1.84 -1.04z"/>
   <path class="fil2" d="M0.63 32.41c0,-0.52 0.39,-0.87 0.9,-0.87 0.37,0 0.58,0.2 0.7,0.41l-0.31 0.15c-0.07,-0.14 -0.22,-0.25 -0.39,-0.25 -0.31,0 -0.53,0.24 -0.53,0.55 0,0.32 0.22,0.55 0.53,0.55 0.17,0 0.32,-0.11 0.39,-0.25l0.31 0.15c-0.12,0.21 -0.33,0.41 -0.7,0.41 -0.51,0 -0.9,-0.35 -0.9,-0.87z"/>
   <path class="fil2" d="M3.76 32.41c0,-0.32 -0.2,-0.55 -0.51,-0.55 -0.31,0 -0.51,0.24 -0.51,0.55 0,0.31 0.2,0.55 0.51,0.55 0.31,0 0.51,-0.24 0.51,-0.55zm-1.39 0c0,-0.51 0.37,-0.87 0.88,-0.87 0.51,0 0.88,0.36 0.88,0.87 0,0.51 -0.37,0.87 -0.88,0.87 -0.51,0 -0.88,-0.36 -0.88,-0.87z"/>
   <polygon class="fil2" points="5.85,33.25 5.85,32.03 5.37,33.25 5.22,33.25 4.74,32.03 4.74,33.25 4.38,33.25 4.38,31.56 4.89,31.56 5.3,32.62 5.71,31.56 6.21,31.56 6.21,33.25 "/>
   <polygon class="fil2" points="6.55,31.56 6.91,31.56 6.91,33.25 6.55,33.25 "/>
   <path class="fil2" d="M7.12 33.01l0.2 -0.28c0.12,0.12 0.3,0.23 0.54,0.23 0.2,0 0.29,-0.09 0.29,-0.19 0,-0.29 -0.97,-0.09 -0.97,-0.72 0,-0.28 0.24,-0.51 0.64,-0.51 0.27,0 0.49,0.08 0.66,0.24l-0.2 0.27c-0.14,-0.13 -0.32,-0.18 -0.49,-0.18 -0.15,0 -0.24,0.07 -0.24,0.17 0,0.27 0.97,0.09 0.97,0.72 0,0.31 -0.22,0.54 -0.68,0.54 -0.33,0 -0.56,-0.11 -0.72,-0.27z"/>
   <path class="fil2" d="M8.64 33.01l0.2 -0.28c0.12,0.12 0.3,0.23 0.54,0.23 0.2,0 0.29,-0.09 0.29,-0.19 0,-0.29 -0.97,-0.09 -0.97,-0.72 0,-0.28 0.24,-0.51 0.64,-0.51 0.27,0 0.49,0.08 0.66,0.24l-0.2 0.27c-0.14,-0.13 -0.32,-0.18 -0.49,-0.18 -0.15,0 -0.24,0.07 -0.24,0.17 0,0.27 0.97,0.09 0.97,0.72 0,0.31 -0.22,0.54 -0.68,0.54 -0.33,0 -0.56,-0.11 -0.72,-0.27z"/>
   <path class="fil2" d="M10.95 31.92l-0.26 0.73 0.53 0 -0.26 -0.73zm-0.15 -0.68c-0.05,0 -0.09,0.05 -0.09,0.16l-0.17 0c0,-0.22 0.1,-0.34 0.27,-0.34 0.17,0 0.2,0.17 0.29,0.17 0.05,0 0.09,-0.05 0.09,-0.15l0.17 0c0,0.22 -0.09,0.34 -0.27,0.34 -0.17,0 -0.2,-0.17 -0.3,-0.17zm0.62 2.01l-0.11 -0.29 -0.72 0 -0.11 0.29 -0.41 0 0.65 -1.69 0.45 0 0.65 1.69 -0.41 0z"/>
   <path class="fil2" d="M13.21 32.41c0,-0.32 -0.2,-0.55 -0.51,-0.55 -0.31,0 -0.51,0.24 -0.51,0.55 0,0.31 0.2,0.55 0.51,0.55 0.31,0 0.51,-0.24 0.51,-0.55zm-1.39 0c0,-0.51 0.37,-0.87 0.88,-0.87 0.51,0 0.88,0.36 0.88,0.87 0,0.51 -0.37,0.87 -0.88,0.87 -0.51,0 -0.88,-0.36 -0.88,-0.87z"/>
   <path class="fil2" d="M15.47 32.11c0,-0.14 -0.11,-0.23 -0.25,-0.23l-0.38 0 0 0.45 0.38 0c0.14,0 0.25,-0.09 0.25,-0.23zm-0.99 1.14l0 -1.69 0.79 0c0.37,0 0.57,0.25 0.57,0.54 0,0.29 -0.2,0.54 -0.57,0.54l-0.43 0 0 0.6 -0.36 0z"/>
   <polygon class="fil2" points="16.06,33.25 16.06,31.56 17.26,31.56 17.26,31.88 16.42,31.88 16.42,32.23 17.24,32.23 17.24,32.55 16.42,32.55 16.42,32.93 17.26,32.93 17.26,33.25 "/>
   <path class="fil2" d="M18.53 32.1c0,-0.14 -0.11,-0.23 -0.25,-0.23l-0.38 0 0 0.46 0.38 0c0.14,0 0.25,-0.09 0.25,-0.23zm-0.04 1.15l-0.33 -0.6 -0.26 0 0 0.6 -0.36 0 0 -1.69 0.79 0c0.35,0 0.57,0.23 0.57,0.54 0,0.3 -0.19,0.46 -0.37,0.5l0.38 0.64 -0.42 0z"/>
   <polygon class="fil2" points="20.63,33.25 20.63,32.03 20.16,33.25 20,33.25 19.52,32.03 19.52,33.25 19.17,33.25 19.17,31.56 19.67,31.56 20.08,32.62 20.49,31.56 21,31.56 21,33.25 "/>
   <path class="fil2" d="M22.03 31.92l-0.26 0.73 0.53 0 -0.26 -0.73zm0.47 1.33l-0.11 -0.29 -0.72 0 -0.11 0.29 -0.41 0 0.65 -1.69 0.45 0 0.65 1.69 -0.41 0z"/>
   <polygon class="fil2" points="24.22,33.25 23.42,32.15 23.42,33.25 23.06,33.25 23.06,31.56 23.43,31.56 24.21,32.62 24.21,31.56 24.57,31.56 24.57,33.25 "/>
   <polygon class="fil2" points="24.9,33.25 24.9,31.56 26.1,31.56 26.1,31.88 25.26,31.88 25.26,32.23 26.08,32.23 26.08,32.55 25.26,32.55 25.26,32.93 26.1,32.93 26.1,33.25 "/>
   <polygon class="fil2" points="27.54,33.25 26.74,32.15 26.74,33.25 26.38,33.25 26.38,31.56 26.75,31.56 27.53,32.62 27.53,31.56 27.89,31.56 27.89,33.25 "/>
   <polygon class="fil2" points="28.61,33.25 28.61,31.88 28.12,31.88 28.12,31.56 29.47,31.56 29.47,31.88 28.98,31.88 28.98,33.25 "/>
   <polygon class="fil2" points="29.7,33.25 29.7,31.56 30.89,31.56 30.89,31.88 30.06,31.88 30.06,32.23 30.87,32.23 30.87,32.55 30.06,32.55 30.06,32.93 30.89,32.93 30.89,33.25 "/>
   <path class="fil2" d="M33.02 32.4c0,-0.3 -0.18,-0.53 -0.53,-0.53l-0.31 0 0 1.05 0.31 0c0.33,0 0.53,-0.24 0.53,-0.53zm-1.19 0.84l0 -1.69 0.67 0c0.53,0 0.9,0.34 0.9,0.84 0,0.51 -0.37,0.84 -0.89,0.84l-0.67 0z"/>
   <polygon class="fil2" points="33.64,33.25 33.64,31.56 34.83,31.56 34.83,31.88 34,31.88 34,32.23 34.82,32.23 34.82,32.55 34,32.55 34,32.93 34.83,32.93 34.83,33.25 "/>
   <path class="fil2" d="M36.46 31.92l-0.26 0.73 0.53 0 -0.26 -0.73zm0.47 1.33l-0.11 -0.29 -0.72 0 -0.11 0.29 -0.41 0 0.65 -1.69 0.45 0 0.65 1.69 -0.41 0z"/>
   <path class="fil2" d="M37.33 32.41c0,-0.52 0.39,-0.87 0.9,-0.87 0.37,0 0.58,0.2 0.7,0.41l-0.31 0.15c-0.07,-0.14 -0.22,-0.25 -0.39,-0.25 -0.31,0 -0.53,0.24 -0.53,0.55 0,0.32 0.22,0.55 0.53,0.55 0.17,0 0.32,-0.11 0.39,-0.25l0.31 0.15c-0.12,0.21 -0.33,0.41 -0.7,0.41 -0.51,0 -0.9,-0.35 -0.9,-0.87z"/>
   <polygon class="fil2" points="39.15,33.25 39.15,31.56 40.34,31.56 40.34,31.88 39.51,31.88 39.51,32.23 40.33,32.23 40.33,32.55 39.51,32.55 39.51,32.93 40.34,32.93 40.34,33.25 "/>
   <path class="fil2" d="M40.51 33.01l0.2 -0.28c0.12,0.12 0.3,0.23 0.54,0.23 0.2,0 0.29,-0.09 0.29,-0.19 0,-0.29 -0.97,-0.09 -0.97,-0.72 0,-0.28 0.24,-0.51 0.64,-0.51 0.27,0 0.49,0.08 0.66,0.24l-0.2 0.27c-0.14,-0.13 -0.32,-0.18 -0.49,-0.18 -0.15,0 -0.24,0.07 -0.24,0.17 0,0.27 0.97,0.09 0.97,0.72 0,0.31 -0.22,0.54 -0.68,0.54 -0.33,0 -0.56,-0.11 -0.72,-0.27z"/>
   <path class="fil2" d="M42.03 33.01l0.2 -0.28c0.12,0.12 0.3,0.23 0.54,0.23 0.2,0 0.29,-0.09 0.29,-0.19 0,-0.29 -0.97,-0.09 -0.97,-0.72 0,-0.28 0.24,-0.51 0.64,-0.51 0.27,0 0.49,0.08 0.66,0.24l-0.2 0.27c-0.14,-0.13 -0.32,-0.18 -0.49,-0.18 -0.15,0 -0.24,0.07 -0.24,0.17 0,0.27 0.97,0.09 0.97,0.72 0,0.31 -0.22,0.54 -0.68,0.54 -0.33,0 -0.56,-0.11 -0.72,-0.27z"/>
   <polygon class="fil2" points="43.66,31.56 44.02,31.56 44.02,33.25 43.66,33.25 "/>
   <path class="fil2" d="M45.39 32.74c0,-0.11 -0.08,-0.19 -0.22,-0.19l-0.47 0 0 0.38 0.47 0c0.13,0 0.22,-0.07 0.22,-0.19zm-0.03 -0.69c0,-0.1 -0.08,-0.18 -0.2,-0.18l-0.45 0 0 0.35 0.45 0c0.12,0 0.2,-0.07 0.2,-0.18zm-1.01 1.19l0 -1.69 0.89 0c0.32,0 0.49,0.2 0.49,0.43 0,0.21 -0.13,0.35 -0.29,0.39 0.18,0.03 0.32,0.2 0.32,0.41 0,0.26 -0.17,0.46 -0.49,0.46l-0.92 0z"/>
   <polygon class="fil2" points="46.03,31.56 46.39,31.56 46.39,33.25 46.03,33.25 "/>
   <polygon class="fil2" points="46.71,33.25 46.71,31.56 47.07,31.56 47.07,32.93 47.78,32.93 47.78,33.25 "/>
   <polygon class="fil2" points="48.03,31.56 48.39,31.56 48.39,33.25 48.03,33.25 "/>
   <path class="fil2" d="M49.92 32.4c0,-0.3 -0.18,-0.53 -0.53,-0.53l-0.31 0 0 1.05 0.31 0c0.33,0 0.53,-0.24 0.53,-0.53zm-1.19 0.84l0 -1.69 0.67 0c0.53,0 0.9,0.34 0.9,0.84 0,0.51 -0.37,0.84 -0.89,0.84l-0.67 0z"/>
   <path class="fil2" d="M51.15 31.92l-0.26 0.73 0.53 0 -0.26 -0.73zm0.47 1.33l-0.11 -0.29 -0.72 0 -0.11 0.29 -0.41 0 0.65 -1.69 0.45 0 0.65 1.69 -0.41 0z"/>
   <path class="fil2" d="M53.38 32.4c0,-0.3 -0.18,-0.53 -0.53,-0.53l-0.31 0 0 1.05 0.31 0c0.33,0 0.53,-0.24 0.53,-0.53zm-1.19 0.84l0 -1.69 0.67 0c0.53,0 0.9,0.34 0.9,0.84 0,0.51 -0.37,0.84 -0.89,0.84l-0.67 0z"/>
   <polygon class="fil2" points="54,33.25 54,31.56 55.19,31.56 55.19,31.88 54.36,31.88 54.36,32.23 55.18,32.23 55.18,32.55 54.36,32.55 54.36,32.93 55.19,32.93 55.19,33.25 "/>
   <path class="fil0" d="M0.63 37.11l0.27 -0.38c0.16,0.17 0.41,0.31 0.72,0.31 0.27,0 0.39,-0.12 0.39,-0.25 0,-0.39 -1.3,-0.12 -1.3,-0.97 0,-0.38 0.33,-0.69 0.86,-0.69 0.36,0 0.66,0.11 0.88,0.32l-0.27 0.36c-0.18,-0.17 -0.43,-0.25 -0.66,-0.25 -0.2,0 -0.32,0.09 -0.32,0.22 0,0.36 1.3,0.12 1.3,0.96 0,0.41 -0.3,0.73 -0.91,0.73 -0.44,0 -0.75,-0.15 -0.96,-0.36z"/>
   <polygon class="fil0" points="2.82,37.43 2.82,35.16 4.42,35.16 4.42,35.59 3.3,35.59 3.3,36.06 4.4,36.06 4.4,36.49 3.3,36.49 3.3,37 4.42,37 4.42,37.43 "/>
   <polygon class="fil0" points="4.78,37.43 4.78,35.16 5.27,35.16 5.27,37 6.22,37 6.22,37.43 "/>
   <path class="fil0" d="M8.22 36.3c0,-0.42 -0.27,-0.74 -0.69,-0.74 -0.42,0 -0.69,0.32 -0.69,0.74 0,0.42 0.27,0.74 0.69,0.74 0.42,0 0.69,-0.32 0.69,-0.74zm-1.87 0c0,-0.68 0.5,-1.17 1.19,-1.17 0.68,0 1.18,0.49 1.18,1.17 0,0.68 -0.5,1.17 -1.18,1.17 -0.69,0 -1.19,-0.49 -1.19,-1.17z"/>
   <path class="fil0" d="M11.53 36.29c0,-0.4 -0.24,-0.71 -0.71,-0.71l-0.41 0 0 1.42 0.41 0c0.45,0 0.71,-0.32 0.71,-0.71zm-1.6 1.13l0 -2.27 0.89 0c0.71,0 1.2,0.45 1.2,1.13 0,0.69 -0.49,1.13 -1.2,1.13l-0.9 0z"/>
   <polygon class="fil0" points="12.37,37.43 12.37,35.16 13.97,35.16 13.97,35.59 12.85,35.59 12.85,36.06 13.95,36.06 13.95,36.49 12.85,36.49 12.85,37 13.97,37 13.97,37.43 "/>
   <path class="fil1" d="M33.7 35.59l-0.41 0 0 1.42 0.41 0c0.45,0 0.71,-0.32 0.71,-0.71 0,-0.4 -0.24,-0.71 -0.71,-0.71z"/>
   <polygon class="fil1" points="35.71,36.62 36.42,36.62 36.07,35.64 "/>
   <path class="fil1" d="M28.05 36.49l-0.62 0 0 0.52 0.62 0c0.18,0 0.29,-0.1 0.29,-0.26 0,-0.14 -0.1,-0.26 -0.29,-0.26z"/>
   <path class="fil1" d="M28.3 35.82c0,-0.14 -0.1,-0.24 -0.27,-0.24l-0.6 0 0 0.48 0.6 0c0.16,0 0.27,-0.09 0.27,-0.24z"/>
   <polygon class="fil1" points="16,36.62 16.71,36.62 16.35,35.64 "/>
   <path class="fil1" d="M38.35 35.59l-0.41 0 0 1.42 0.41 0c0.45,0 0.71,-0.32 0.71,-0.71 0,-0.4 -0.24,-0.71 -0.71,-0.71z"/>
   <g>
    <path class="fil1" d="M41.49 35.59l-1.12 0 0 0.48 1.1 0 0 0.42 -1.1 0 0 0.52 1.12 0 0 0.42 -1.6 0 0 -2.27 1.6 0 0 0.42zm-3.15 1.84l-0.9 0 0 -2.27 0.89 0c0.71,0 1.2,0.45 1.2,1.13 0,0.69 -0.49,1.13 -1.2,1.13zm-1.65 0l-0.14 -0.38 -0.97 0 -0.14 0.38 -0.55 0 0.87 -2.27 0.6 0 0.87 2.27 -0.55 0zm-2.99 0l-0.9 0 0 -2.27 0.89 0c0.71,0 1.2,0.45 1.2,1.13 0,0.69 -0.49,1.13 -1.2,1.13zm-1.34 0l-0.48 0 0 -2.27 0.48 0 0 2.27zm-0.81 0l-1.44 0 0 -2.27 0.49 0 0 1.84 0.96 0 0 0.42zm-1.87 0l-0.48 0 0 -2.27 0.48 0 0 2.27zm-1.5 0l-1.23 0 0 -2.27 1.19 0c0.43,0 0.65,0.28 0.65,0.58 0,0.28 -0.18,0.48 -0.39,0.52 0.24,0.04 0.44,0.27 0.44,0.55 0,0.34 -0.22,0.61 -0.66,0.61zm-1.68 0l-0.48 0 0 -2.27 0.48 0 0 2.27zm-1.71 0.04c-0.44,0 -0.75,-0.15 -0.96,-0.36l0.27 -0.38c0.16,0.17 0.41,0.31 0.72,0.31 0.27,0 0.39,-0.12 0.39,-0.25 0,-0.39 -1.3,-0.12 -1.3,-0.97 0,-0.38 0.33,-0.69 0.86,-0.69 0.36,0 0.66,0.11 0.88,0.32l-0.27 0.36c-0.18,-0.17 -0.43,-0.25 -0.66,-0.25 -0.2,0 -0.32,0.09 -0.32,0.22 0,0.36 1.3,0.12 1.3,0.96 0,0.41 -0.3,0.73 -0.91,0.73zm-2.04 0c-0.44,0 -0.75,-0.15 -0.96,-0.36l0.27 -0.38c0.16,0.17 0.41,0.31 0.72,0.31 0.27,0 0.39,-0.12 0.39,-0.25 0,-0.39 -1.3,-0.12 -1.3,-0.97 0,-0.38 0.33,-0.69 0.86,-0.69 0.36,0 0.66,0.11 0.88,0.32l-0.27 0.36c-0.18,-0.17 -0.43,-0.25 -0.66,-0.25 -0.2,0 -0.32,0.09 -0.32,0.22 0,0.36 1.3,0.12 1.3,0.96 0,0.41 -0.3,0.73 -0.91,0.73zm-1.19 -1.88l-1.12 0 0 0.48 1.1 0 0 0.42 -1.1 0 0 0.52 1.12 0 0 0.42 -1.6 0 0 -2.27 1.6 0 0 0.42zm-2.84 1.45c0.23,0 0.43,-0.15 0.53,-0.33l0.41 0.2c-0.16,0.28 -0.45,0.56 -0.94,0.56 -0.68,0 -1.21,-0.48 -1.21,-1.17 0,-0.7 0.53,-1.17 1.21,-1.17 0.5,0 0.78,0.27 0.94,0.55l-0.41 0.2c-0.1,-0.18 -0.3,-0.33 -0.53,-0.33 -0.41,0 -0.71,0.32 -0.71,0.74 0,0.43 0.3,0.74 0.71,0.74zm-1.74 0.39l-0.14 -0.38 -0.97 0 -0.14 0.38 -0.55 0 0.87 -2.27 0.6 0 0.87 2.27 -0.55 0zm-2.4 0.55l27.63 0 0 -3.36 -27.63 0 0 3.36zm0 -3.36l0 3.36 0 -3.36z"/>
   </g>
   <path class="fil3" d="M16 36.62l0.35 -0.97 0.35 0.97 -0.71 0zm0.05 -1.46l-0.87 2.27 0.55 0 0.14 -0.38 0.97 0 0.14 0.38 0.55 0 -0.87 -2.27 -0.6 0z"/>
   <path class="fil3" d="M18.72 35.55c0.23,0 0.43,0.15 0.53,0.33l0.41 -0.2c-0.16,-0.29 -0.45,-0.55 -0.94,-0.55 -0.68,0 -1.21,0.47 -1.21,1.17 0,0.7 0.53,1.17 1.21,1.17 0.5,0 0.78,-0.28 0.94,-0.56l-0.41 -0.2c-0.1,0.18 -0.3,0.33 -0.53,0.33 -0.41,0 -0.71,-0.32 -0.71,-0.74 0,-0.43 0.3,-0.74 0.71,-0.74z"/>
   <polygon class="fil3" points="19.96,37.43 21.56,37.43 21.56,37 20.44,37 20.44,36.49 21.54,36.49 21.54,36.06 20.44,36.06 20.44,35.59 21.56,35.59 21.56,35.16 19.96,35.16 "/>
   <path class="fil3" d="M22.35 35.78c0,-0.14 0.12,-0.22 0.32,-0.22 0.23,0 0.48,0.08 0.66,0.25l0.27 -0.36c-0.22,-0.21 -0.52,-0.32 -0.88,-0.32 -0.53,0 -0.86,0.31 -0.86,0.69 0,0.85 1.3,0.58 1.3,0.97 0,0.13 -0.13,0.25 -0.39,0.25 -0.31,0 -0.56,-0.14 -0.72,-0.31l-0.27 0.38c0.21,0.21 0.53,0.36 0.96,0.36 0.61,0 0.91,-0.31 0.91,-0.73 0,-0.85 -1.3,-0.6 -1.3,-0.96z"/>
   <path class="fil3" d="M24.39 35.78c0,-0.14 0.12,-0.22 0.32,-0.22 0.23,0 0.48,0.08 0.66,0.25l0.27 -0.36c-0.22,-0.21 -0.52,-0.32 -0.88,-0.32 -0.53,0 -0.86,0.31 -0.86,0.69 0,0.85 1.3,0.58 1.3,0.97 0,0.13 -0.13,0.25 -0.39,0.25 -0.31,0 -0.56,-0.14 -0.72,-0.31l-0.27 0.38c0.21,0.21 0.53,0.36 0.96,0.36 0.61,0 0.91,-0.31 0.91,-0.73 0,-0.85 -1.3,-0.6 -1.3,-0.96z"/>
   <polygon class="fil3" points="26.01,37.43 26.49,37.43 26.49,35.16 26.01,35.16 "/>
   <path class="fil3" d="M28.05 37l-0.62 0 0 -0.52 0.62 0c0.19,0 0.29,0.12 0.29,0.26 0,0.16 -0.11,0.26 -0.29,0.26zm-0.62 -1.42l0.6 0c0.16,0 0.27,0.1 0.27,0.24 0,0.15 -0.1,0.24 -0.27,0.24l-0.6 0 0 -0.48zm0.97 0.67c0.21,-0.04 0.39,-0.24 0.39,-0.52 0,-0.3 -0.22,-0.58 -0.65,-0.58l-1.19 0 0 2.27 1.23 0c0.44,0 0.66,-0.27 0.66,-0.61 0,-0.28 -0.19,-0.52 -0.43,-0.55z"/>
   <polygon class="fil3" points="29.2,37.43 29.68,37.43 29.68,35.16 29.2,35.16 "/>
   <polygon class="fil3" points="30.59,35.16 30.11,35.16 30.11,37.43 31.55,37.43 31.55,37 30.59,37 "/>
   <polygon class="fil3" points="31.87,37.43 32.36,37.43 32.36,35.16 31.87,35.16 "/>
   <path class="fil3" d="M33.7 37l-0.41 0 0 -1.42 0.41 0c0.46,0 0.71,0.31 0.71,0.71 0,0.39 -0.26,0.71 -0.71,0.71zm0 -1.84l-0.89 0 0 2.27 0.9 0c0.71,0 1.2,-0.45 1.2,-1.13 0,-0.68 -0.49,-1.13 -1.2,-1.13z"/>
   <path class="fil3" d="M35.71 36.62l0.35 -0.97 0.35 0.97 -0.71 0zm0.05 -1.46l-0.87 2.27 0.55 0 0.14 -0.38 0.97 0 0.14 0.38 0.55 0 -0.87 -2.27 -0.6 0z"/>
   <path class="fil3" d="M38.35 37l-0.41 0 0 -1.42 0.41 0c0.46,0 0.71,0.31 0.71,0.71 0,0.39 -0.26,0.71 -0.71,0.71zm0 -1.84l-0.89 0 0 2.27 0.9 0c0.71,0 1.2,-0.45 1.2,-1.13 0,-0.68 -0.49,-1.13 -1.2,-1.13z"/>
   <polygon class="fil3" points="39.89,37.43 41.49,37.43 41.49,37 40.37,37 40.37,36.49 41.47,36.49 41.47,36.06 40.37,36.06 40.37,35.59 41.49,35.59 41.49,35.16 39.89,35.16 "/>
   <path class="fil0" d="M44.54 36.29c0,-0.4 -0.24,-0.71 -0.71,-0.71l-0.41 0 0 1.42 0.41 0c0.45,0 0.71,-0.32 0.71,-0.71zm-1.6 1.13l0 -2.27 0.89 0c0.71,0 1.2,0.45 1.2,1.13 0,0.69 -0.49,1.13 -1.2,1.13l-0.9 0z"/>
   <polygon class="fil0" points="45.38,35.16 45.86,35.16 45.86,37.43 45.38,37.43 "/>
   <path class="fil0" d="M46.2 36.3c0,-0.72 0.54,-1.17 1.21,-1.17 0.47,0 0.76,0.24 0.93,0.51l-0.4 0.22c-0.11,-0.16 -0.3,-0.3 -0.54,-0.3 -0.41,0 -0.71,0.32 -0.71,0.74 0,0.43 0.3,0.74 0.71,0.74 0.2,0 0.39,-0.09 0.48,-0.17l0 -0.27 -0.6 0 0 -0.42 1.08 0 0 0.87c-0.23,0.26 -0.55,0.42 -0.96,0.42 -0.67,0 -1.21,-0.46 -1.21,-1.17z"/>
   <polygon class="fil0" points="48.75,35.16 49.24,35.16 49.24,37.43 48.75,37.43 "/>
   <polygon class="fil0" points="50.21,37.43 50.21,35.59 49.54,35.59 49.54,35.16 51.35,35.16 51.35,35.59 50.69,35.59 50.69,37.43 "/>
   <path class="fil0" d="M52.38 35.64l-0.35 0.97 0.71 0 -0.35 -0.97zm0.63 1.78l-0.14 -0.38 -0.97 0 -0.14 0.38 -0.55 0 0.87 -2.27 0.6 0 0.87 2.27 -0.55 0z"/>
   <polygon class="fil0" points="53.75,37.43 53.75,35.16 54.23,35.16 54.23,37 55.19,37 55.19,37.43 "/>
  </g>
 </g>
</svg>
