<?xml version="1.0" encoding="UTF-8"?>
<!DOCTYPE svg PUBLIC "-//W3C//DTD SVG 1.1//EN" "http://www.w3.org/Graphics/SVG/1.1/DTD/svg11.dtd">
<!-- Creator: CorelDRAW 2017 -->
<svg xmlns="http://www.w3.org/2000/svg" xml:space="preserve" width="458.908mm" height="315.748mm" version="1.1" style="shape-rendering:geometricPrecision; text-rendering:geometricPrecision; image-rendering:optimizeQuality; fill-rule:evenodd; clip-rule:evenodd"
viewBox="0 0 46118.12 31731.2"
 xmlns:xlink="http://www.w3.org/1999/xlink">
 <defs>
  <style type="text/css">
   <![CDATA[
    .fil0 {fill:#FEFEFE;fill-rule:nonzero}
    .fil1 {fill:#0066FF;fill-rule:nonzero}
    .fil2 {fill:white;fill-rule:nonzero}
   ]]>
  </style>
 </defs>
 <g id="Camada_x0020_1">
  <metadata id="CorelCorpID_0Corel-Layer"/>
  <g id="_961505696096">
   <path class="fil0" d="M-0 16291.11c0,-5014.73 3773.31,-8398.52 8666.3,-8398.52 3554.21,0 5623.36,1923.15 6767.51,3968.05l-2969.91 1460.64c-681.59,-1314.64 -2142.24,-2361.33 -3797.61,-2361.33 -2969.91,0 -5112.14,2263.87 -5112.14,5331.16 0,3067.3 2142.24,5331.18 5112.14,5331.18 1655.37,0 3116.02,-1046.75 3797.61,-2361.28l2969.91 1436.28c-1144.15,2020.49 -3213.31,3992.29 -6767.51,3992.29 -4892.99,0 -8666.3,-3408.1 -8666.3,-8398.48z"/>
   <path class="fil0" d="M27021.28 13394.25c0,-1363.25 -1046.87,-2190.92 -2410.12,-2190.92l-3651.5 0 0 4357.46 3651.5 0c1363.25,0 2410.12,-827.67 2410.12,-2166.55zm-9518.37 11003.27l0 -16237.11 7595.06 0c3529.96,0 5452.87,2385.6 5452.87,5233.84 0,2823.79 -1947.51,5209.47 -5452.87,5209.47l-4138.3 0 0 5793.79 -3456.76 0z"/>
   <path class="fil1" d="M37635.63 11617.16l-2532.04 6986.56 5063.19 0 -2531.15 -6986.56zm4503.45 12780.35l-1022.77 -2750.86 -6962.13 0 -1022.73 2750.86 -3919.21 0 6256.4 -16237.11 4332.97 0 6256.56 16237.11 -3919.09 0z"/>
   <path class="fil1" d="M43871.11 5248.17l1538.88 -869.33c-1130.43,-2000.73 -2975.67,-3442.34 -5194.93,-4059.35 -2219.27,-616.99 -4543.75,-334.36 -6544.26,796.03l869.22 1538.55c3287.61,-1857.37 7473.65,-693.86 9331.09,2594.09l0 0z"/>
   <path class="fil1" d="M42716.8 5900.08c-724.77,-1282.72 -1907.38,-2206.9 -3329.74,-2602.34 -1422.34,-395.47 -2912.23,-214.28 -4194.9,510.45l869.28 1538.55c871.33,-492.36 1884.96,-615.33 2852.25,-346.3 967.85,268.99 1771.97,897.26 2264.22,1768.76l1538.89 -869.11z"/>
   <path class="fil0" d="M524.26 27078.06c0,-435.53 327.71,-729.42 752.75,-729.42 308.72,0 488.42,167.09 587.8,344.68l-257.99 126.8c-59.21,-114.16 -186.02,-205 -329.81,-205 -257.95,0 -444.09,196.57 -444.09,462.94 0,266.49 186.14,463.11 444.09,463.11 143.79,0 270.59,-90.95 329.81,-205.11l257.99 124.74c-99.38,175.54 -279.08,346.8 -587.8,346.8 -425.04,0 -752.75,-296.07 -752.75,-729.55z"/>
   <path class="fil0" d="M3141.87 27078.06c0,-264.27 -167.03,-462.94 -427.08,-462.94 -262.22,0 -429.26,198.67 -429.26,462.94 0,262.22 167.03,463.11 429.26,463.11 260.05,0 427.08,-200.89 427.08,-463.11zm-1165.01 0c0,-424.92 310.83,-729.42 737.93,-729.42 424.98,0 735.76,304.5 735.76,729.42 0,425.04 -310.77,729.55 -735.76,729.55 -427.09,0 -737.93,-304.5 -737.93,-729.55z"/>
   <polygon class="fil0" points="4888.43,27782.19 4888.43,26765.17 4490.86,27782.19 4359.79,27782.19 3962.27,26765.17 3962.27,27782.19 3661.99,27782.19 3661.99,26371.88 4082.81,26371.88 4425.33,27253.59 4767.84,26371.88 5190.72,26371.88 5190.72,27782.19 "/>
   <polygon class="fil0" points="5469.76,27782.19 5770.05,27782.19 5770.05,26371.84 5469.76,26371.84 "/>
   <path class="fil0" d="M5951.84 27583.41l164.93 -234.7c99.39,103.67 253.78,192.46 448.29,192.46 167.04,0 245.24,-74.02 245.24,-156.49 0,-245.24 -811.95,-73.98 -811.95,-604.74 0,-234.7 203,-429.21 534.98,-429.21 224.13,0 410.16,67.7 549.74,196.68l-167.05 224.08c-114.15,-105.71 -266.37,-154.33 -410.16,-154.33 -126.86,0 -198.78,54.94 -198.78,139.58 0,221.97 809.84,71.86 809.84,598.35 0,257.94 -186.08,452.51 -564.56,452.51 -272.75,0 -467.31,-90.96 -600.51,-224.19z"/>
   <path class="fil0" d="M7220.46 27583.41l164.93 -234.7c99.35,103.67 253.74,192.46 448.25,192.46 167.03,0 245.28,-74.02 245.28,-156.49 0,-245.24 -812,-73.98 -812,-604.74 0,-234.7 203,-429.21 534.98,-429.21 224.2,0 410.21,67.7 549.74,196.68l-167.05 224.08c-114.14,-105.71 -266.37,-154.33 -410.16,-154.33 -126.87,0 -198.73,54.94 -198.73,139.58 0,221.97 809.79,71.86 809.79,598.35 0,257.94 -186.08,452.51 -564.5,452.51 -272.81,0 -467.32,-90.96 -600.52,-224.19z"/>
   <path class="fil0" d="M9148.83 26672.11l-219.93 606.84 439.81 0 -219.87 -606.84zm-126.93 -568.77c-42.22,0 -76.08,40.18 -76.08,131.14l-141.73 0c0,-179.76 80.41,-283.37 228.37,-283.37 141.68,0 164.98,141.69 245.29,141.69 42.34,0 76.15,-40.18 76.15,-129.03l141.67 0c0,179.75 -78.25,283.42 -226.26,283.42 -143.78,0 -167.03,-143.85 -247.4,-143.85zm518.05 1678.85l-88.79 -238.92 -604.73 0 -88.8 238.92 -340.46 0 543.46 -1410.31 376.32 0 543.41 1410.31 -340.42 0z"/>
   <path class="fil0" d="M11036.89 27078.06c0,-264.27 -166.98,-462.94 -427.08,-462.94 -262.16,0 -429.26,198.67 -429.26,462.94 0,262.22 167.09,463.11 429.26,463.11 260.1,0 427.08,-200.89 427.08,-463.11zm-1165.01 0c0,-424.92 310.83,-729.42 737.93,-729.42 425.04,0 735.87,304.5 735.87,729.42 0,425.04 -310.82,729.55 -735.87,729.55 -427.09,0 -737.93,-304.5 -737.93,-729.55z"/>
   <path class="fil0" d="M12927.19 26826.5c0,-118.42 -90.96,-190.29 -209.39,-190.29l-317.1 0 0 378.42 317.1 0c118.43,0 209.39,-71.87 209.39,-188.14zm-826.77 955.69l0 -1410.31 659.68 0c306.6,0 473.65,207.22 473.65,454.62 0,245.24 -169.15,452.45 -473.65,452.45l-359.4 0 0 503.24 -300.28 0z"/>
   <polygon class="fil0" points="13421.88,27782.19 13421.88,26371.88 14419.9,26371.88 14419.9,26636.21 13722.22,26636.21 13722.22,26932.21 14405.14,26932.21 14405.14,27196.48 13722.22,27196.48 13722.22,27517.91 14419.9,27517.91 14419.9,27782.19 "/>
   <path class="fil0" d="M15481.32 26824.39c0,-116.31 -90.91,-188.18 -209.33,-188.18l-317.16 0 0 380.53 317.16 0c118.42,0 209.33,-71.86 209.33,-192.35zm-29.59 957.8l-276.97 -501.07 -219.93 0 0 501.07 -300.22 0 0 -1410.31 659.67 0c293.91,0 475.76,192.41 475.76,454.62 0,247.4 -158.61,382.7 -310.83,418.65l319.26 537.04 -346.74 0z"/>
   <polygon class="fil0" points="17240.46,27782.19 17240.46,26765.17 16843.01,27782.19 16711.87,27782.19 16314.36,26765.17 16314.36,27782.19 16014.12,27782.19 16014.12,26371.88 16434.89,26371.88 16777.47,27253.59 17119.98,26371.88 17542.8,26371.88 17542.8,27782.19 "/>
   <path class="fil0" d="M18405.48 26672.11l-219.92 606.84 439.8 0 -219.87 -606.84zm391.14 1110.08l-88.8 -238.92 -604.73 0 -88.8 238.92 -340.4 0 543.41 -1410.31 376.36 0 543.42 1410.31 -340.47 0z"/>
   <polygon class="fil0" points="20240.77,27782.19 19568.39,26862.46 19568.39,27782.19 19268.11,27782.19 19268.11,26371.88 19576.83,26371.88 20230.17,27257.81 20230.17,26371.88 20530.41,26371.88 20530.41,27782.19 "/>
   <polygon class="fil0" points="20809.48,27782.19 20809.48,26371.88 21807.53,26371.88 21807.53,26636.21 21109.72,26636.21 21109.72,26932.21 21792.71,26932.21 21792.71,27196.48 21109.72,27196.48 21109.72,27517.91 21807.53,27517.91 21807.53,27782.19 "/>
   <polygon class="fil0" points="23014.83,27782.19 22342.39,26862.46 22342.39,27782.19 22042.16,27782.19 22042.16,26371.88 22350.88,26371.88 23004.29,27257.81 23004.29,26371.88 23304.46,26371.88 23304.46,27782.19 "/>
   <polygon class="fil0" points="23909.14,27782.19 23909.14,26636.21 23496.86,26636.21 23496.86,26371.88 24621.75,26371.88 24621.75,26636.21 24211.48,26636.21 24211.48,27782.19 "/>
   <polygon class="fil0" points="24814.27,27782.19 24814.27,26371.88 25812.02,26371.88 25812.02,26636.21 25114.5,26636.21 25114.5,26932.21 25797.15,26932.21 25797.15,27196.48 25114.5,27196.48 25114.5,27517.91 25812.02,27517.91 25812.02,27782.19 "/>
   <path class="fil0" d="M27588.22 27076c0,-247.39 -152.23,-439.79 -439.69,-439.79l-258.29 0 0 881.71 256.17 0c278.97,0 441.81,-200.9 441.81,-441.92zm-998.15 706.19l0 -1410.31 556.34 0c441.81,0 748.36,281.26 748.36,704.12 0,427.1 -306.55,706.19 -746.24,706.19l-558.46 0z"/>
   <polygon class="fil0" points="28108.09,27782.19 28108.09,26371.88 29106.18,26371.88 29106.18,26636.21 28408.27,26636.21 28408.27,26932.21 29091.37,26932.21 29091.37,27196.48 28408.27,27196.48 28408.27,27517.91 29106.18,27517.91 29106.18,27782.19 "/>
   <path class="fil0" d="M30467.72 26672.11l-219.6 606.84 439.69 0 -220.08 -606.84zm391.4 1110.08l-89.06 -238.92 -604.63 0 -88.63 238.92 -340.52 0 543.18 -1410.31 376.54 0 543.59 1410.31 -340.47 0z"/>
   <path class="fil0" d="M31191.15 27078.06c0,-435.53 327.77,-729.42 752.64,-729.42 308.66,0 488.48,167.09 587.7,344.68l-257.83 126.8c-59.38,-114.16 -186.14,-205 -329.87,-205 -258.22,0 -443.97,196.57 -443.97,462.94 0,266.49 185.75,463.11 443.97,463.11 143.73,0 270.48,-90.95 329.87,-205.11l257.83 124.74c-99.22,175.54 -279.04,346.8 -587.7,346.8 -424.87,0 -752.64,-296.07 -752.64,-729.55z"/>
   <polygon class="fil0" points="32711.23,27782.19 32711.23,26371.88 33709.37,26371.88 33709.37,26636.21 33011.46,26636.21 33011.46,26932.21 33694.56,26932.21 33694.56,27196.48 33011.46,27196.48 33011.46,27517.91 33709.37,27517.91 33709.37,27782.19 "/>
   <path class="fil0" d="M33846.77 27583.41l164.93 -234.7c99.23,103.67 253.56,192.46 448.18,192.46 167.05,0 245.08,-74.02 245.08,-156.49 0,-245.24 -811.96,-73.98 -811.96,-604.74 0,-234.7 203.06,-429.21 535.1,-429.21 223.86,0 410,67.7 549.51,196.68l-166.65 224.08c-114.48,-105.71 -266.71,-154.33 -410.44,-154.33 -126.74,0 -198.84,54.94 -198.84,139.58 0,221.97 809.84,71.86 809.84,598.35 0,257.94 -186.13,452.51 -564.33,452.51 -272.64,0 -467.26,-90.96 -600.41,-224.19z"/>
   <path class="fil0" d="M35115.01 27583.41l164.94 -234.7c99.61,103.67 254,192.46 448.62,192.46 167.04,0 245.08,-74.02 245.08,-156.49 0,-245.24 -812.02,-73.98 -812.02,-604.74 0,-234.7 203.11,-429.21 535.15,-429.21 223.86,0 410,67.7 549.51,196.68l-167.09 224.08c-114.04,-105.71 -266.27,-154.33 -410,-154.33 -126.8,0 -198.84,54.94 -198.84,139.58 0,221.97 809.84,71.86 809.84,598.35 0,257.94 -186.12,452.51 -564.39,452.51 -273.04,0 -467.26,-90.96 -600.79,-224.19z"/>
   <polygon class="fil0" points="36481.21,27782.19 36781.43,27782.19 36781.43,26371.84 36481.21,26371.84 "/>
   <path class="fil0" d="M37929.2 27357.15c0,-88.75 -63.27,-160.67 -179.26,-160.67l-389.3 0 0 321.43 389.3 0c112.11,0 179.26,-59.27 179.26,-160.76zm-27.2 -572.99c0,-86.63 -63.25,-147.95 -164.82,-147.95l-376.54 0 0 296 376.54 0c101.57,0 164.82,-57.1 164.82,-148.05zm-841.58 998.03l0 -1410.31 742.25 0c268.59,0 406.22,171.26 406.22,359.44 0,175.48 -110.43,296.02 -243.62,323.49 152.06,23.24 270.81,169.19 270.81,344.73 0,213.49 -139.85,382.65 -410.11,382.65l-765.55 0z"/>
   <polygon class="fil0" points="38462.51,27782.19 38762.71,27782.19 38762.71,26371.84 38462.51,26371.84 "/>
   <polygon class="fil0" points="39028.57,27782.19 39028.57,26371.88 39331.01,26371.88 39331.01,27517.91 39927.59,27517.91 39927.59,27782.19 "/>
   <polygon class="fil0" points="40130.16,27782.19 40430.34,27782.19 40430.34,26371.84 40130.16,26371.84 "/>
   <path class="fil0" d="M41707.89 27076c0,-247.39 -152.61,-439.79 -440.07,-439.79l-257.51 0 0 881.71 255.28 0c279.15,0 442.3,-200.9 442.3,-441.92zm-997.82 706.19l0 -1410.31 555.52 0c442.3,0 748.64,281.26 748.64,704.12 0,427.1 -306.34,706.19 -746.41,706.19l-557.75 0z"/>
   <path class="fil0" d="M42739.56 26672.11l-219.77 606.84 439.52 0 -219.74 -606.84zm391.23 1110.08l-88.79 -238.92 -604.9 0 -88.79 238.92 -340.2 0 543.31 -1410.31 376.26 0 543.29 1410.31 -340.19 0z"/>
   <path class="fil0" d="M44600.32 27076c0,-247.39 -152.06,-439.79 -439.53,-439.79l-258.61 0 0 881.71 256.38 0c279.15,0 441.76,-200.9 441.76,-441.92zm-998.36 706.19l0 -1410.31 556.6 0c441.76,0 748.09,281.26 748.09,704.12 0,427.1 -306.33,706.19 -745.86,706.19l-558.83 0z"/>
   <polygon class="fil0" points="45120.3,27782.19 45120.3,26371.88 46118.12,26371.88 46118.12,26636.21 45420.54,26636.21 45420.54,26932.21 46103.69,26932.21 46103.69,27196.48 45420.54,27196.48 45420.54,27517.91 46118.12,27517.91 46118.12,27782.19 "/>
   <path class="fil0" d="M522.77 31005.8l221.37 -315.04c133.42,139.08 340.58,258.27 601.75,258.27 224.25,0 329.25,-99.34 329.25,-210.06 0,-329.18 -1089.93,-99.33 -1089.93,-811.72 0,-315.1 272.48,-576.22 718.11,-576.22 300.84,0 550.62,90.8 737.99,264l-224.21 300.83c-153.28,-141.9 -357.66,-207.16 -550.67,-207.16 -170.32,0 -266.77,73.76 -266.77,187.24 0,298.07 1087.05,96.56 1087.05,803.35 0,346.24 -249.73,607.39 -757.84,607.39 -366.16,0 -627.32,-122.08 -806.07,-300.89z"/>
   <polygon class="fil0" points="2356.17,31272.64 2356.17,29379.4 3695.89,29379.4 3695.89,29734.24 2759.3,29734.24 2759.3,30131.58 3676.09,30131.58 3676.09,30486.43 2759.3,30486.43 2759.3,30917.85 3695.89,30917.85 3695.89,31272.64 "/>
   <polygon class="fil0" points="3993.84,31272.64 3993.84,29379.4 4399.74,29379.4 4399.74,30917.85 5200.16,30917.85 5200.16,31272.64 "/>
   <path class="fil0" d="M6869.02 30327.43c0,-354.79 -224.27,-621.6 -573.34,-621.6 -351.94,0 -576.2,266.81 -576.2,621.6 0,351.94 224.26,621.6 576.2,621.6 349.07,0 573.34,-269.66 573.34,-621.6zm-1563.92 0c0,-570.55 417.21,-979.22 990.58,-979.22 570.49,0 987.77,408.66 987.77,979.22 0,570.5 -417.28,979.27 -987.77,979.27 -573.38,0 -990.58,-408.76 -990.58,-979.27z"/>
   <path class="fil0" d="M9636.19 30324.6c0,-332.09 -204.34,-590.36 -590.37,-590.36l-346.29 0 0 1183.61 343.46 0c374.72,0 593.19,-269.65 593.19,-593.25zm-1339.66 948.04l0 -1893.24 746.47 0c593.19,0 1004.8,377.48 1004.8,945.2 0,573.34 -411.61,948.04 -1001.98,948.04l-749.29 0z"/>
   <polygon class="fil0" points="10334.27,31272.64 10334.27,29379.4 11673.98,29379.4 11673.98,29734.24 10737.33,29734.24 10737.33,30131.58 11654.17,30131.58 11654.17,30486.43 10737.33,30486.43 10737.33,30917.85 11673.98,30917.85 11673.98,31272.64 "/>
   <path class="fil1" d="M28160.66 29734.24l-346.03 0 0 1183.61 343.02 0c374.87,0 593.64,-269.65 593.64,-593.25 0,-332.09 -204.34,-590.36 -590.63,-590.36z"/>
   <polygon class="fil1" points="29841.05,30597.08 30431.25,30597.08 30136.13,29782.47 "/>
   <path class="fil1" d="M23438.1 30486.43l-522.21 0 0 431.42 522.21 0c150.44,0 241.29,-79.52 241.29,-215.76 0,-119.22 -85.18,-215.65 -241.29,-215.65z"/>
   <path class="fil1" d="M23642.49 29932.92c0,-116.43 -85.19,-198.68 -221.43,-198.68l-505.17 0 0 397.35 505.17 0c136.24,0 221.43,-76.63 221.43,-198.67z"/>
   <polygon class="fil1" points="13368.27,30597.08 13958.68,30597.08 13663.51,29782.47 "/>
   <path class="fil1" d="M32043.4 29734.24l-346.41 0 0 1183.61 343.47 0c374.82,0 593.18,-269.65 593.18,-593.25 0,-332.09 -204.39,-590.36 -590.25,-590.36z"/>
   <path class="fil1" d="M34671.5 29734.24l-936.65 0 0 397.35 916.73 0 0 354.85 -916.73 0 0 431.42 936.65 0 0 354.79 -1339.88 0 0 -1893.24 1339.88 0 0 354.84zm-2628.1 1538.4l-749.24 0 0 -1893.24 746.31 0c593.18,0 1004.91,377.48 1004.91,945.2 0,573.34 -411.73,948.04 -1001.98,948.04zm-1382.28 0l-119.15 -320.76 -811.62 0 -119.54 320.76 -456.68 0 729.32 -1893.24 505.41 0 729.31 1893.24 -457.06 0zm-2500.45 0l-749.25 0 0 -1893.24 746.25 0c593.64,0 1004.97,377.48 1004.97,945.2 0,573.34 -411.34,948.04 -1001.97,948.04zm-1123.69 0l-403.23 0 0 -1893.24 403.23 0 0 1893.24zm-675.43 0l-1206.37 0 0 -1893.24 405.79 0 0 1538.45 800.58 0 0 354.79zm-1564.26 0l-402.79 0 0 -1893.24 402.79 0 0 1893.24zm-1257.02 0l-1027.5 0 0 -1893.24 996.31 0c360.51,0 544.97,229.98 544.97,482.54 0,235.58 -147.56,397.41 -326.43,434.31 204.4,31.18 363.34,227.04 363.34,462.6 0,286.69 -187.36,513.79 -550.68,513.79zm-1402.04 0l-403.13 0 0 -1893.24 403.13 0 0 1893.24zm-1430.4 34.06c-366.15,0 -627.32,-122.08 -806.12,-300.89l221.42 -315.04c133.36,139.08 340.58,258.27 601.74,258.27 224.2,0 329.26,-99.34 329.26,-210.06 0,-329.18 -1089.94,-99.33 -1089.94,-811.72 0,-315.1 272.43,-576.22 718.06,-576.22 300.89,0 550.62,90.8 738.04,264l-224.31 300.83c-153.23,-141.9 -357.62,-207.16 -550.63,-207.16 -170.31,0 -266.77,73.76 -266.77,187.24 0,298.07 1087.11,96.56 1087.11,803.35 0,346.24 -249.77,607.39 -757.84,607.39zm-1702.99 0c-366.1,0 -627.2,-122.08 -806.01,-300.89l221.37 -315.04c133.36,139.08 340.58,258.27 601.74,258.27 224.26,0 329.26,-99.34 329.26,-210.06 0,-329.18 -1089.99,-99.33 -1089.99,-811.72 0,-315.1 272.48,-576.22 718.17,-576.22 300.83,0 550.56,90.8 737.97,264l-224.25 300.83c-153.29,-141.9 -357.61,-207.16 -550.62,-207.16 -170.32,0 -266.82,73.76 -266.82,187.24 0,298.07 1087.1,96.56 1087.1,803.35 0,346.24 -249.78,607.39 -757.91,607.39zm-990.42 -1572.46l-936.66 0 0 397.35 916.79 0 0 354.85 -916.79 0 0 431.42 936.66 0 0 354.79 -1339.71 0 0 -1893.24 1339.71 0 0 354.84zm-2369.95 1214.8c193.07,0 363.39,-122.03 442.86,-275.31l346.3 167.49c-133.42,235.52 -374.71,465.48 -789.16,465.48 -570.49,0 -1010.4,-397.4 -1010.4,-979.27 0,-584.75 439.91,-979.22 1010.4,-979.22 414.45,0 655.74,224.2 789.16,462.67l-346.3 170.26c-79.47,-153.23 -249.79,-275.32 -442.86,-275.32 -346.23,0 -596.01,263.99 -596.01,621.6 0,357.67 249.78,621.6 596.01,621.6zm-1455.85 323.6l-119.26 -320.76 -811.8 0 -119.2 320.76 -456.96 0 729.51 -1893.24 505.23 0 729.42 1893.24 -456.94 0zm-2005.44 -2349.3l0 2807.86 23090.41 0 0 -2807.86 -23090.41 0z"/>
   <path class="fil2" d="M13368.27 30597.08l295.23 -814.6 295.17 814.6 -590.41 0zm42.62 -1217.68l-729.51 1893.24 456.96 0 119.2 -320.76 811.8 0 119.26 320.76 456.94 0 -729.42 -1893.24 -505.23 0z"/>
   <path class="fil2" d="M15644.46 29705.83c193.07,0 363.39,122.09 442.86,275.32l346.3 -170.26c-133.42,-238.47 -374.71,-462.67 -789.16,-462.67 -570.49,0 -1010.4,394.46 -1010.4,979.22 0,581.87 439.91,979.27 1010.4,979.27 414.45,0 655.74,-229.96 789.16,-465.48l-346.3 -167.49c-79.47,153.28 -249.79,275.31 -442.86,275.31 -346.23,0 -596.01,-263.93 -596.01,-621.6 0,-357.61 249.78,-621.6 596.01,-621.6z"/>
   <polygon class="fil2" points="16674.7,31272.64 18014.41,31272.64 18014.41,30917.85 17077.75,30917.85 17077.75,30486.43 17994.54,30486.43 17994.54,30131.58 17077.75,30131.58 17077.75,29734.24 18014.41,29734.24 18014.41,29379.4 16674.7,29379.4 "/>
   <path class="fil2" d="M18675.64 29895.95c0,-113.48 96.51,-187.24 266.82,-187.24 193.01,0 397.34,65.26 550.62,207.16l224.25 -300.83c-187.4,-173.2 -437.13,-264 -737.97,-264 -445.69,0 -718.17,261.12 -718.17,576.22 0,712.39 1089.99,482.54 1089.99,811.72 0,110.72 -105.01,210.06 -329.26,210.06 -261.16,0 -468.38,-119.2 -601.74,-258.27l-221.37 315.04c178.81,178.81 439.91,300.89 806.01,300.89 508.12,0 757.91,-261.16 757.91,-607.39 0,-706.79 -1087.1,-505.28 -1087.1,-803.35z"/>
   <path class="fil2" d="M20378.56 29895.95c0,-113.48 96.47,-187.24 266.77,-187.24 193.01,0 397.41,65.26 550.63,207.16l224.31 -300.83c-187.41,-173.2 -437.14,-264 -738.04,-264 -445.63,0 -718.06,261.12 -718.06,576.22 0,712.39 1089.94,482.54 1089.94,811.72 0,110.72 -105.06,210.06 -329.26,210.06 -261.16,0 -468.38,-119.2 -601.74,-258.27l-221.42 315.04c178.8,178.81 439.97,300.89 806.12,300.89 508.07,0 757.84,-261.16 757.84,-607.39 0,-706.79 -1087.11,-505.28 -1087.11,-803.35z"/>
   <polygon class="fil2" points="21735.1,31272.64 22138.18,31272.64 22138.18,29379.41 21735.1,29379.41 "/>
   <path class="fil2" d="M23438.1 30917.85l-522.21 0 0 -431.42 522.21 0c156.11,0 241.29,96.44 241.29,215.65 0,136.24 -90.85,215.76 -241.29,215.76zm-522.21 -1183.61l505.17 0c136.24,0 221.43,82.25 221.43,198.68 0,122.04 -85.19,198.67 -221.43,198.67l-505.17 0 0 -397.35zm811.72 562.01c178.87,-36.9 326.43,-198.73 326.43,-434.31 0,-252.55 -184.46,-482.54 -544.97,-482.54l-996.31 0 0 1893.24 1027.5 0c363.32,0 550.68,-227.1 550.68,-513.79 0,-235.56 -158.94,-431.42 -363.34,-462.6z"/>
   <polygon class="fil2" points="24394.5,31272.64 24797.32,31272.64 24797.32,29379.41 24394.5,29379.41 "/>
   <polygon class="fil2" points="25560.97,29379.4 25155.18,29379.4 25155.18,31272.64 26361.55,31272.64 26361.55,30917.85 25560.97,30917.85 "/>
   <polygon class="fil2" points="26633.75,31272.64 27036.97,31272.64 27036.97,29379.41 26633.75,29379.41 "/>
   <path class="fil2" d="M28157.66 30917.85l-343.02 0 0 -1183.61 346.03 0c386.29,0 590.63,258.27 590.63,590.36 0,323.6 -218.77,593.25 -593.64,593.25zm0 -1538.45l-746.25 0 0 1893.24 749.25 0c590.63,0 1001.97,-374.71 1001.97,-948.04 0,-567.72 -411.34,-945.2 -1004.97,-945.2z"/>
   <path class="fil2" d="M29841.05 30597.08l295.07 -814.6 295.12 814.6 -590.2 0zm42.4 -1217.68l-729.32 1893.24 456.68 0 119.54 -320.76 811.62 0 119.15 320.76 457.06 0 -729.31 -1893.24 -505.41 0z"/>
   <path class="fil2" d="M32040.46 30917.85l-343.47 0 0 -1183.61 346.41 0c385.86,0 590.25,258.27 590.25,590.36 0,323.6 -218.37,593.25 -593.18,593.25zm0 -1538.45l-746.31 0 0 1893.24 749.24 0c590.25,0 1001.98,-374.71 1001.98,-948.04 0,-567.72 -411.73,-945.2 -1004.91,-945.2z"/>
   <polygon class="fil2" points="33331.62,31272.64 34671.5,31272.64 34671.5,30917.85 33734.85,30917.85 33734.85,30486.43 34651.58,30486.43 34651.58,30131.58 33734.85,30131.58 33734.85,29734.24 34671.5,29734.24 34671.5,29379.4 33331.62,29379.4 "/>
   <path class="fil0" d="M37217.29 30324.6c0,-332.09 -204.39,-590.36 -590.25,-590.36l-346.41 0 0 1183.61 343.47 0c374.38,0 593.18,-269.65 593.18,-593.25zm-1339.88 948.04l0 -1893.24 746.7 0c593.18,0 1004.85,377.48 1004.85,945.2 0,573.34 -411.67,948.04 -1001.92,948.04l-749.63 0z"/>
   <polygon class="fil0" points="37915.31,31272.64 38318.57,31272.64 38318.57,29379.41 37915.31,29379.41 "/>
   <path class="fil0" d="M38602.35 30327.43c0,-598.9 453.96,-979.22 1010.03,-979.22 391.8,0 638.76,198.61 780.83,422.87l-331.88 181.7c-88.23,-133.42 -249.73,-246.96 -448.95,-246.96 -346.3,0 -596.03,263.99 -596.03,621.6 0,357.67 249.73,621.6 596.03,621.6 167.6,0 323.54,-73.81 400.67,-144.72l0 -227.1 -499.46 0 0 -351.94 902.37 0 0 726.61c-193.13,215.75 -462.84,354.82 -803.58,354.82 -556.07,0 -1010.03,-383.19 -1010.03,-979.27z"/>
   <polygon class="fil0" points="40736.17,31272.64 41139.39,31272.64 41139.39,29379.41 40736.17,29379.41 "/>
   <polygon class="fil0" points="41950.95,31272.64 41950.95,29734.24 41397.68,29734.24 41397.68,29379.4 42907.7,29379.4 42907.7,29734.24 42357.19,29734.24 42357.19,31272.64 "/>
   <path class="fil0" d="M43767.33 29782.47l-294.68 814.6 589.92 0 -295.23 -814.6zm525.54 1490.16l-119.32 -320.76 -811.89 0 -118.77 320.76 -457.28 0 729.2 -1893.24 505.57 0 729.21 1893.24 -456.73 0z"/>
   <polygon class="fil0" points="44908.87,31272.64 44908.87,29379.4 45314.54,29379.4 45314.54,30917.85 46114.79,30917.85 46114.79,31272.64 "/>
  </g>
 </g>
</svg>
